
        <svg xmlns="http://www.w3.org/2000/svg" xmlns:xlink="http://www.w3.org/1999/xlink" version="1.1" width="3166.475367610509" height="894.8368818389465" viewBox="0 0 3166.475367610509 894.8368818389465">
			
			<g transform="scale(8.323768380525454) translate(10, 10)">
				<defs id="SvgjsDefs1334"/><g id="SvgjsG1335" featureKey="Ez5wPW-0" transform="matrix(0.8269719459613716,0,0,0.8269719459613716,0.7379143629650198,13.903308594424912)" fill="#fff"><path xmlns="http://www.w3.org/2000/svg" d="M29.5,25.5c2.5,0,4.6-2.1,4.6-4.6s-2.1-4.6-4.6-4.6c-2.5,0-4.6,2.1-4.6,4.6S27,25.5,29.5,25.5z M27,58  c0,0.7,0.6,1.3,1.3,1.3c0.7,0,1.3-0.6,1.3-1.3s-0.6-1.3-1.3-1.3C27.6,56.7,27,57.3,27,58z M36.2,31.3c1.1,0,1.9-0.9,1.9-1.9  c0-1.1-0.9-1.9-1.9-1.9c-1.1,0-1.9,0.9-1.9,1.9C34.3,30.4,35.1,31.3,36.2,31.3z M21.1,48.6c2.5,0,4.6-2.1,4.6-4.6  c0-2.5-2.1-4.6-4.6-4.6s-4.6,2.1-4.6,4.6C16.6,46.5,18.6,48.6,21.1,48.6z M14.5,37.8c1.1,0,1.9-0.9,1.9-1.9c0-1.1-0.9-1.9-1.9-1.9  c-1.1,0-1.9,0.9-1.9,1.9C12.6,37,13.4,37.8,14.5,37.8z M13.8,42c0-0.7-0.6-1.3-1.3-1.3c-0.7,0-1.3,0.6-1.3,1.3s0.6,1.3,1.3,1.3  C13.2,43.3,13.8,42.7,13.8,42z M19.9,31.2c1.8,0,3.2-1.4,3.2-3.2s-1.4-3.2-3.2-3.2c-1.8,0-3.2,1.4-3.2,3.2S18.1,31.2,19.9,31.2z   M58.8,13.6c0.7,0,1.3-0.6,1.3-1.3c0-0.7-0.6-1.3-1.3-1.3c-0.7,0-1.3,0.6-1.3,1.3C57.5,13,58.1,13.6,58.8,13.6z M23.8,57.5  c0-3.1-2.5-5.6-5.6-5.6c-3.1,0-5.6,2.5-5.6,5.6s2.5,5.6,5.6,5.6C21.3,63.1,23.8,60.6,23.8,57.5z M79.9,33.9c2.5,0,4.6-2.1,4.6-4.6  s-2.1-4.6-4.6-4.6s-4.6,2.1-4.6,4.6S77.3,33.9,79.9,33.9z M69.6,65.5c0,1.8,1.4,3.2,3.2,3.2c1.8,0,3.2-1.4,3.2-3.2s-1.4-3.2-3.2-3.2  C71,62.3,69.6,63.7,69.6,65.5z M72.8,22.9c1.8,0,3.2-1.4,3.2-3.2c0-1.8-1.4-3.2-3.2-3.2c-1.8,0-3.2,1.4-3.2,3.2  C69.6,21.5,71,22.9,72.8,22.9z M65.7,31.2c1.8,0,3.2-1.4,3.2-3.2s-1.4-3.2-3.2-3.2c-1.8,0-3.2,1.4-3.2,3.2S63.9,31.2,65.7,31.2z   M77.2,42.5c0,3.1,2.5,5.6,5.6,5.6c3.1,0,5.6-2.5,5.6-5.6s-2.5-5.6-5.6-5.6C79.7,36.9,77.2,39.4,77.2,42.5z M74,42  c0-0.7-0.6-1.3-1.3-1.3c-0.7,0-1.3,0.6-1.3,1.3s0.6,1.3,1.3,1.3C73.4,43.3,74,42.7,74,42z M64.8,16.1c1.1,0,1.9-0.9,1.9-1.9  s-0.9-1.9-1.9-1.9c-1.1,0-1.9,0.9-1.9,1.9S63.8,16.1,64.8,16.1z M70.8,37.8c1.1,0,1.9-0.9,1.9-1.9c0-1.1-0.9-1.9-1.9-1.9  s-1.9,0.9-1.9,1.9C68.9,37,69.8,37.8,70.8,37.8z M31.4,34.5c0-1.8-1.4-3.2-3.2-3.2c-1.8,0-3.2,1.4-3.2,3.2s1.4,3.2,3.2,3.2  C30,37.7,31.4,36.3,31.4,34.5z M64.8,68.7c-1.1,0-1.9,0.9-1.9,1.9c0,1.1,0.9,1.9,1.9,1.9c1.1,0,1.9-0.9,1.9-1.9  C66.7,69.6,65.9,68.7,64.8,68.7z M58.3,76.4c-3.1,0-5.6,2.5-5.6,5.6s2.5,5.6,5.6,5.6c3.1,0,5.6-2.5,5.6-5.6S61.4,76.4,58.3,76.4z   M71.5,74.5c-2.5,0-4.6,2.1-4.6,4.6s2.1,4.6,4.6,4.6c2.5,0,4.6-2.1,4.6-4.6S74,74.5,71.5,74.5z M57.5,72.5c0,0.7,0.6,1.3,1.3,1.3  c0.7,0,1.3-0.6,1.3-1.3c0-0.7-0.6-1.3-1.3-1.3C58.1,71.3,57.5,71.8,57.5,72.5z M88.5,56.7c-0.7,0-1.3,0.6-1.3,1.3s0.6,1.3,1.3,1.3  c0.7,0,1.3-0.6,1.3-1.3S89.1,56.7,88.5,56.7z M86.5,62.2c-1.1,0-1.9,0.9-1.9,1.9c0,1.1,0.9,1.9,1.9,1.9c1.1,0,1.9-0.9,1.9-1.9  C88.4,63,87.6,62.2,86.5,62.2z M56.2,25.5c2.5,0,4.6-2.1,4.6-4.6s-2.1-4.6-4.6-4.6s-4.6,2.1-4.6,4.6S53.7,25.5,56.2,25.5z   M79.9,51.4c-2.5,0-4.6,2.1-4.6,4.6c0,2.5,2.1,4.6,4.6,4.6s4.6-2.1,4.6-4.6C84.4,53.5,82.4,51.4,79.9,51.4z M21.1,66.1  c-2.5,0-4.6,2.1-4.6,4.6s2.1,4.6,4.6,4.6s4.6-2.1,4.6-4.6S23.7,66.1,21.1,66.1z M81.1,68.8c-1.8,0-3.2,1.4-3.2,3.2s1.4,3.2,3.2,3.2  c1.8,0,3.2-1.4,3.2-3.2S82.9,68.8,81.1,68.8z M30.2,62.2c-1.1,0-1.9,0.9-1.9,1.9c0,1.1,0.9,1.9,1.9,1.9s1.9-0.9,1.9-1.9  C32.1,63,31.2,62.2,30.2,62.2z M35.3,68.8c-1.8,0-3.2,1.4-3.2,3.2s1.4,3.2,3.2,3.2c1.8,0,3.2-1.4,3.2-3.2S37.1,68.8,35.3,68.8z   M36.2,83.9c-1.1,0-1.9,0.9-1.9,1.9s0.9,1.9,1.9,1.9c1.1,0,1.9-0.9,1.9-1.9S37.2,83.9,36.2,83.9z M28.2,77.1c-1.8,0-3.2,1.4-3.2,3.2  c0,1.8,1.4,3.2,3.2,3.2c1.8,0,3.2-1.4,3.2-3.2C31.4,78.5,30,77.1,28.2,77.1z M41,27.5c0,0.7,0.6,1.3,1.3,1.3c0.7,0,1.3-0.6,1.3-1.3  c0-0.7-0.6-1.3-1.3-1.3C41.5,26.2,41,26.8,41,27.5z M48.3,17.9c0-3.1-2.5-5.6-5.6-5.6c-3.1,0-5.6,2.5-5.6,5.6s2.5,5.6,5.6,5.6  C45.8,23.6,48.3,21.1,48.3,17.9z M42.2,86.4c-0.7,0-1.3,0.6-1.3,1.3c0,0.7,0.6,1.3,1.3,1.3c0.7,0,1.3-0.6,1.3-1.3  C43.5,87,42.9,86.4,42.2,86.4z M44.8,74.5c-2.5,0-4.6,2.1-4.6,4.6s2.1,4.6,4.6,4.6s4.6-2.1,4.6-4.6S47.3,74.5,44.8,74.5z"/></g><g id="SvgjsG1336" featureKey="ujU5uU-0" transform="matrix(2.7453516907852253,0,0,2.7453516907852253,83.24297479353432,12.265027972800588)" fill="#fff"><path d="M0.64 20 l0 -0.3 l1.72 0 l0 -12.62 l-1.72 0 l0 -0.3 l10.24 0 s-0.42 1.58 -0.58 3.74 l-0.3 0 l0 -1.98 c0 -1.16 -0.28 -1.46 -1.12 -1.46 l-4.08 0 l0 6.24 l3.12 0 l0 -1.76 l0.3 0 l0 4 l-0.3 0 l0 -1.94 l-3.12 0 l0 6.08 l4.06 0 c1.18 0 1.4 -1.24 1.76 -3.66 l0.32 0 s-0.3 1.82 -0.3 3.96 l-10 0 z M12.879999999999999 20.14 l-0.26 0 c0.2 -0.5 0.2 -1.62 0.2 -2.26 l0 -1.08 l0.3 0 l0 0.32 c0 1.58 1.12 2.72 3.08 2.72 c1.26 0 2.38 -0.46 2.38 -1.56 c0 -2.2 -5.84 -0.76 -5.84 -4.68 c0 -2.04 1.72 -2.74 3.28 -2.74 c0.98 0 1.78 0.3 2.32 0.76 c0.48 -0.08 0.7 -0.4 0.84 -0.76 l0.26 0 c-0.24 0.5 -0.28 1.22 -0.28 1.86 l0 1.02 l-0.3 0 l0 -0.32 c0 -1 -0.8 -2.26 -2.86 -2.26 c-1.24 0 -2.3 0.46 -2.3 1.52 c0 2.24 5.88 0.8 5.88 4.56 c0 1.66 -1.24 2.9 -3.38 2.9 c-1.1 0 -1.94 -0.32 -2.52 -0.86 c-0.42 0.1 -0.66 0.48 -0.8 0.86 z M21.919999999999998 17.32 l0 -6.02 l-1.3 0 l0 -0.3 l0.5 0 c1.84 0 2.7 -2.12 2.74 -3.3 l0.3 0 l0 3.3 l2.28 0 l0 0.3 l-2.28 0 l0 6.58 c0 1.1 0.18 1.76 1 1.76 c0.46 0 1.24 -0.26 1.24 -1.54 l0.3 0 c0 0.88 -0.36 2.04 -2.2 2.04 c-1.94 0 -2.58 -1.26 -2.58 -2.82 z M27.22 20 l0 -0.3 l1.32 0 l0 -8.4 l-1.32 0 l0 -0.3 l3.56 0 l0 8.7 l1.32 0 l0 0.3 l-4.88 0 z M28.299999999999997 7.720000000000001 c0 -0.7 0.58 -1.26 1.28 -1.26 c0.68 0 1.24 0.56 1.24 1.26 c0 0.68 -0.56 1.26 -1.24 1.26 c-0.7 0 -1.28 -0.58 -1.28 -1.26 z M32.8 20 l0 -0.3 l1.32 0 l0 -8.4 l-1.32 0 l0 -0.3 l3.52 0 l0 2.12 l0.04 0 c0.24 -0.6 0.96 -2.26 3.28 -2.26 c1.82 0 2.64 0.78 2.78 2.26 l0.04 0 c0.24 -0.6 0.96 -2.26 3.28 -2.26 c1.92 0 2.82 0.86 2.82 2.74 l0 6.1 l1.34 0 l0 0.3 l-4.76 0 l0 -0.3 l1.18 0 l0 -6.58 c0 -1.28 -0.32 -1.78 -1.24 -1.78 c-1.86 0 -2.6 2.12 -2.62 3.22 l0 5.14 l1.26 0 l0 0.3 l-4.68 0 l0 -0.3 l1.18 0 l0 -6.58 c0 -1.28 -0.32 -1.78 -1.24 -1.78 c-1.9 0 -2.62 2.2 -2.62 3.28 l0 5.08 l1.2 0 l0 0.3 l-4.76 0 z M56.239999999999995 18.5 l-0.04 0 c-0.4 0.78 -1.32 1.64 -2.78 1.64 c-1.3 0 -2.72 -0.58 -2.72 -2.24 c0 -2.16 2.74 -2.86 5.16 -2.86 l0.2 0 l0 -2.1 c0 -1.16 -0.34 -1.82 -1.56 -1.82 c-1.16 0 -1.7 0.5 -1.7 1.52 c0 0.66 0.26 1.22 0.94 1.1 l0 0.16 s-0.44 0.14 -0.92 0.14 c-0.94 0 -1.64 -0.46 -1.64 -1.3 c0 -1.12 1.16 -1.88 3.36 -1.88 c2.72 0 3.76 1 3.76 2.74 l0 5.18 c0 0.56 0.12 0.86 0.52 0.86 c0.62 0 0.88 -0.72 0.88 -1.38 l0.3 0 c0 1.28 -0.74 1.88 -1.8 1.88 c-1.12 0 -1.88 -0.6 -1.96 -1.64 z M56.06 17.9 l0 -2.56 l-0.26 0 c-0.92 0 -1.5 0.2 -1.92 0.48 c-0.58 0.4 -0.84 1.1 -0.84 2.08 c0 1.24 0.38 1.76 1.06 1.76 c0.34 0 0.68 -0.14 1.02 -0.36 c0.5 -0.36 0.94 -0.96 0.94 -1.4 z M61.54 17.32 l0 -6.02 l-1.3 0 l0 -0.3 l0.5 0 c1.84 0 2.7 -2.12 2.74 -3.3 l0.3 0 l0 3.3 l2.28 0 l0 0.3 l-2.28 0 l0 6.58 c0 1.1 0.18 1.76 1 1.76 c0.46 0 1.24 -0.26 1.24 -1.54 l0.3 0 c0 0.88 -0.36 2.04 -2.2 2.04 c-1.94 0 -2.58 -1.26 -2.58 -2.82 z M69.54 15.26 l0 0.3 c0 3.54 0.84 4.26 2.3 4.26 c1.48 0 2.86 -0.94 2.86 -2.44 l0.3 0 c-0.02 1.2 -0.72 2.02 -1.74 2.46 c-0.52 0.22 -1.02 0.3 -1.64 0.3 c-2.62 0 -4.44 -1.26 -4.44 -4.64 c0 -3.3 1.74 -4.64 4.28 -4.64 c2.36 0 3.74 1.18 3.74 3.6 l0 0.8 l-5.66 0 z M69.56 14.96 l3.42 0 l0 -0.94 c0 -1.88 -0.36 -2.9 -1.56 -2.9 c-1.3 0 -1.8 1.06 -1.86 3.84 z M78.06 14.440000000000001 l0 -7.36 l-1.74 0 l0 -0.3 l5.94 0 l0 0.3 l-1.74 0 l0 7.36 c0 3.84 0.82 5.4 3.38 5.4 c3.12 0 4.22 -2.22 4.22 -4.9 l0 -6.66 c0 -0.76 -0.32 -1.2 -1.2 -1.2 l-0.6 0 l0 -0.3 l3.9 0 l0 0.3 l-0.62 0 c-0.88 0 -1.18 0.44 -1.18 1.2 l0 6.66 c0 2.9 -1.24 5.2 -4.52 5.2 c-4.52 0 -5.84 -2.1 -5.84 -5.7 z M94.36 14.42 l0 2.62 c0 1.32 0.72 2.7 2.2 2.7 c1.46 0 2.06 -1.36 2.06 -4.42 c0 -2.96 -0.56 -4.04 -1.88 -4.04 c-1.42 0 -2.38 1.52 -2.38 3.14 z M90.78 24.56 l0 -0.3 l1.34 0 l0 -12.96 l-1.34 0 l0 -0.3 l3.54 0 l0 1.86 l0.04 0 c0.44 -1.14 1.3 -2 2.92 -2 c2.52 0 3.68 1.72 3.68 4.5 c0 3.02 -1.52 4.78 -3.98 4.78 c-1.46 0 -2.22 -0.76 -2.58 -1.54 l-0.04 0 l0 5.66 l1.34 0 l0 0.3 l-4.92 0 z"/></g>
			</g>
		</svg>
	